<?xml version="1.0" encoding="UTF-8" standalone="no"?>
<!DOCTYPE svg PUBLIC "-//W3C//DTD SVG 1.1//EN"
 "http://www.w3.org/Graphics/SVG/1.1/DTD/svg11.dtd">
<!-- Generated by graphviz version 9.0.0 (20230911.1827)
 -->
<!-- Title: G Pages: 1 -->
<svg width="1122pt" height="548pt"
 viewBox="0.00 0.00 1122.17 548.00" xmlns="http://www.w3.org/2000/svg" xmlns:xlink="http://www.w3.org/1999/xlink">
<g id="graph0" class="graph" transform="scale(1 1) rotate(0) translate(4 544)">
<title>G</title>
<polygon fill="white" stroke="none" points="-4,4 -4,-544 1118.17,-544 1118.17,4 -4,4"/>
<!-- [root] module.mod1.random_pet.this (expand) -->
<g id="node1" class="node">
<title>[root] module.mod1.random_pet.this (expand)</title>
<polygon fill="none" stroke="black" points="614.38,-180 426.63,-180 426.63,-144 614.38,-144 614.38,-180"/>
<text text-anchor="middle" x="520.51" y="-156.57" font-family="Times New Roman,serif" font-size="14.00">module.mod1.random_pet.this</text>
</g>
<!-- [root] provider[&quot;registry.terraform.io/hashicorp/random&quot;] -->
<g id="node3" class="node">
<title>[root] provider[&quot;registry.terraform.io/hashicorp/random&quot;]</title>
<polygon fill="none" stroke="black" points="282.51,-108 0,-90 282.51,-72 565.02,-90 282.51,-108"/>
<text text-anchor="middle" x="282.51" y="-84.58" font-family="Times New Roman,serif" font-size="14.00">provider[&quot;registry.terraform.io/hashicorp/random&quot;]</text>
</g>
<!-- [root] module.mod1.random_pet.this (expand)&#45;&gt;[root] provider[&quot;registry.terraform.io/hashicorp/random&quot;] -->
<g id="edge3" class="edge">
<title>[root] module.mod1.random_pet.this (expand)&#45;&gt;[root] provider[&quot;registry.terraform.io/hashicorp/random&quot;]</title>
<path fill="none" stroke="red" d="M461.07,-143.52C424.76,-132.84 378.48,-119.23 342.14,-108.54"/>
<polygon fill="red" stroke="red" points="343.23,-105.21 332.65,-105.75 341.26,-111.93 343.23,-105.21"/>
</g>
<!-- [root] module.mod1.var.pet_length (expand) -->
<g id="node6" class="node">
<title>[root] module.mod1.var.pet_length (expand)</title>
<ellipse fill="none" stroke="black" cx="759.51" cy="-90" rx="176.31" ry="18"/>
<text text-anchor="middle" x="759.51" y="-84.58" font-family="Times New Roman,serif" font-size="14.00">[root] module.mod1.var.pet_length (expand)</text>
</g>
<!-- [root] module.mod1.random_pet.this (expand)&#45;&gt;[root] module.mod1.var.pet_length (expand) -->
<g id="edge2" class="edge">
<title>[root] module.mod1.random_pet.this (expand)&#45;&gt;[root] module.mod1.var.pet_length (expand)</title>
<path fill="none" stroke="red" d="M580.2,-143.52C614.41,-133.5 657.43,-120.9 692.75,-110.55"/>
<polygon fill="red" stroke="red" points="693.38,-114.02 702,-107.85 691.41,-107.3 693.38,-114.02"/>
</g>
<!-- [root] module.mod2.random_pet.this (expand) -->
<g id="node2" class="node">
<title>[root] module.mod2.random_pet.this (expand)</title>
<polygon fill="none" stroke="red" points="764.38,-396 576.63,-396 576.63,-360 764.38,-360 764.38,-396"/>
<text text-anchor="middle" x="670.51" y="-372.57" font-family="Times New Roman,serif" font-size="14.00">module.mod2.random_pet.this</text>
</g>
<!-- [root] module.mod2.var.pet_length (expand) -->
<g id="node9" class="node">
<title>[root] module.mod2.var.pet_length (expand)</title>
<ellipse fill="none" stroke="black" cx="670.51" cy="-306" rx="176.31" ry="18"/>
<text text-anchor="middle" x="670.51" y="-300.57" font-family="Times New Roman,serif" font-size="14.00">[root] module.mod2.var.pet_length (expand)</text>
</g>
<!-- [root] module.mod2.random_pet.this (expand)&#45;&gt;[root] module.mod2.var.pet_length (expand) -->
<g id="edge7" class="edge">
<title>[root] module.mod2.random_pet.this (expand)&#45;&gt;[root] module.mod2.var.pet_length (expand)</title>
<path fill="none" stroke="red" d="M670.51,-359.7C670.51,-352.41 670.51,-343.73 670.51,-335.54"/>
<polygon fill="red" stroke="red" points="674.01,-335.62 670.51,-325.62 667.01,-335.62 674.01,-335.62"/>
</g>
<!-- [root] var.pet_length -->
<g id="node4" class="node">
<title>[root] var.pet_length</title>
<polygon fill="none" stroke="black" points="707.88,-36 619.13,-36 619.13,0 713.88,0 713.88,-30 707.88,-36"/>
<polyline fill="none" stroke="black" points="707.88,-36 707.88,-30"/>
<polyline fill="none" stroke="black" points="713.88,-30 707.88,-30"/>
<text text-anchor="middle" x="666.51" y="-12.57" font-family="Times New Roman,serif" font-size="14.00">var.pet_length</text>
</g>
<!-- [root] module.mod1.output.pet (expand) -->
<g id="node5" class="node">
<title>[root] module.mod1.output.pet (expand)</title>
<ellipse fill="none" stroke="black" cx="520.51" cy="-234" rx="161.84" ry="18"/>
<text text-anchor="middle" x="520.51" y="-228.57" font-family="Times New Roman,serif" font-size="14.00">[root] module.mod1.output.pet (expand)</text>
</g>
<!-- [root] module.mod1.output.pet (expand)&#45;&gt;[root] module.mod1.random_pet.this (expand) -->
<g id="edge1" class="edge">
<title>[root] module.mod1.output.pet (expand)&#45;&gt;[root] module.mod1.random_pet.this (expand)</title>
<path fill="none" stroke="red" d="M520.51,-215.7C520.51,-208.41 520.51,-199.73 520.51,-191.54"/>
<polygon fill="red" stroke="red" points="524.01,-191.62 520.51,-181.62 517.01,-191.62 524.01,-191.62"/>
</g>
<!-- [root] module.mod1.var.pet_length (expand)&#45;&gt;[root] var.pet_length -->
<g id="edge5" class="edge">
<title>[root] module.mod1.var.pet_length (expand)&#45;&gt;[root] var.pet_length</title>
<path fill="none" stroke="red" d="M736.52,-71.7C725.12,-63.11 711.16,-52.61 698.71,-43.24"/>
<polygon fill="red" stroke="red" points="700.86,-40.47 690.77,-37.26 696.65,-46.07 700.86,-40.47"/>
</g>
<!-- [root] module.mod1 (expand) -->
<g id="node7" class="node">
<title>[root] module.mod1 (expand)</title>
<ellipse fill="none" stroke="black" cx="853.51" cy="-18" rx="121.42" ry="18"/>
<text text-anchor="middle" x="853.51" y="-12.57" font-family="Times New Roman,serif" font-size="14.00">[root] module.mod1 (expand)</text>
</g>
<!-- [root] module.mod1.var.pet_length (expand)&#45;&gt;[root] module.mod1 (expand) -->
<g id="edge4" class="edge">
<title>[root] module.mod1.var.pet_length (expand)&#45;&gt;[root] module.mod1 (expand)</title>
<path fill="none" stroke="red" d="M782.75,-71.7C794.47,-62.97 808.87,-52.24 821.62,-42.75"/>
<polygon fill="red" stroke="red" points="823.4,-45.79 829.33,-37.01 819.22,-40.17 823.4,-45.79"/>
</g>
<!-- [root] module.mod2 (close) -->
<g id="node8" class="node">
<title>[root] module.mod2 (close)</title>
<ellipse fill="none" stroke="black" cx="478.51" cy="-450" rx="113.94" ry="18"/>
<text text-anchor="middle" x="478.51" y="-444.57" font-family="Times New Roman,serif" font-size="14.00">[root] module.mod2 (close)</text>
</g>
<!-- [root] module.mod2 (close)&#45;&gt;[root] module.mod2.random_pet.this (expand) -->
<g id="edge6" class="edge">
<title>[root] module.mod2 (close)&#45;&gt;[root] module.mod2.random_pet.this (expand)</title>
<path fill="none" stroke="red" d="M522.56,-432.94C549.06,-423.28 583.13,-410.86 611.89,-400.37"/>
<polygon fill="red" stroke="red" points="613.01,-403.69 621.21,-396.97 610.61,-397.11 613.01,-403.69"/>
</g>
<!-- [root] module.mod2.var.pet_length (expand)&#45;&gt;[root] module.mod1.output.pet (expand) -->
<g id="edge8" class="edge">
<title>[root] module.mod2.var.pet_length (expand)&#45;&gt;[root] module.mod1.output.pet (expand)</title>
<path fill="none" stroke="red" d="M634.2,-288.05C614.01,-278.63 588.66,-266.8 567.03,-256.71"/>
<polygon fill="red" stroke="red" points="568.66,-253.61 558.12,-252.55 565.7,-259.95 568.66,-253.61"/>
</g>
<!-- [root] module.mod2 (expand) -->
<g id="node10" class="node">
<title>[root] module.mod2 (expand)</title>
<ellipse fill="none" stroke="black" cx="821.51" cy="-234" rx="121.42" ry="18"/>
<text text-anchor="middle" x="821.51" y="-228.57" font-family="Times New Roman,serif" font-size="14.00">[root] module.mod2 (expand)</text>
</g>
<!-- [root] module.mod2.var.pet_length (expand)&#45;&gt;[root] module.mod2 (expand) -->
<g id="edge9" class="edge">
<title>[root] module.mod2.var.pet_length (expand)&#45;&gt;[root] module.mod2 (expand)</title>
<path fill="none" stroke="red" d="M707.06,-288.05C727.54,-278.56 753.28,-266.63 775.16,-256.49"/>
<polygon fill="red" stroke="red" points="776.58,-259.69 784.18,-252.3 773.64,-253.34 776.58,-259.69"/>
</g>
<!-- [root] provider[&quot;registry.terraform.io/hashicorp/random&quot;] (close) -->
<g id="node11" class="node">
<title>[root] provider[&quot;registry.terraform.io/hashicorp/random&quot;] (close)</title>
<ellipse fill="none" stroke="black" cx="862.51" cy="-450" rx="251.66" ry="18"/>
<text text-anchor="middle" x="862.51" y="-444.57" font-family="Times New Roman,serif" font-size="14.00">[root] provider[&quot;registry.terraform.io/hashicorp/random&quot;] (close)</text>
</g>
<!-- [root] provider[&quot;registry.terraform.io/hashicorp/random&quot;] (close)&#45;&gt;[root] module.mod2.random_pet.this (expand) -->
<g id="edge10" class="edge">
<title>[root] provider[&quot;registry.terraform.io/hashicorp/random&quot;] (close)&#45;&gt;[root] module.mod2.random_pet.this (expand)</title>
<path fill="none" stroke="red" d="M815.54,-431.88C789.47,-422.37 756.81,-410.46 729.08,-400.35"/>
<polygon fill="red" stroke="red" points="730.34,-397.09 719.75,-396.95 727.95,-403.67 730.34,-397.09"/>
</g>
<!-- [root] root -->
<g id="node12" class="node">
<title>[root] root</title>
<ellipse fill="none" stroke="black" cx="670.51" cy="-522" rx="50.07" ry="18"/>
<text text-anchor="middle" x="670.51" y="-516.58" font-family="Times New Roman,serif" font-size="14.00">[root] root</text>
</g>
<!-- [root] root&#45;&gt;[root] module.mod2 (close) -->
<g id="edge11" class="edge">
<title>[root] root&#45;&gt;[root] module.mod2 (close)</title>
<path fill="none" stroke="red" d="M636.18,-508.49C607.47,-498.02 566,-482.9 532.79,-470.79"/>
<polygon fill="red" stroke="red" points="534.34,-467.63 523.75,-467.49 531.94,-474.21 534.34,-467.63"/>
</g>
<!-- [root] root&#45;&gt;[root] provider[&quot;registry.terraform.io/hashicorp/random&quot;] (close) -->
<g id="edge12" class="edge">
<title>[root] root&#45;&gt;[root] provider[&quot;registry.terraform.io/hashicorp/random&quot;] (close)</title>
<path fill="none" stroke="red" d="M704.84,-508.49C732.55,-498.38 772.16,-483.94 804.75,-472.06"/>
<polygon fill="red" stroke="red" points="805.88,-475.37 814.08,-468.66 803.48,-468.79 805.88,-475.37"/>
</g>
</g>
</svg>
