<?xml version="1.0" encoding="UTF-8" standalone="no"?>
<!DOCTYPE svg PUBLIC "-//W3C//DTD SVG 1.1//EN"
 "http://www.w3.org/Graphics/SVG/1.1/DTD/svg11.dtd">
<!-- Generated by graphviz version 9.0.0 (20230911.1827)
 -->
<!-- Title: G Pages: 1 -->
<svg width="1681pt" height="548pt"
 viewBox="0.00 0.00 1681.28 548.00" xmlns="http://www.w3.org/2000/svg" xmlns:xlink="http://www.w3.org/1999/xlink">
<g id="graph0" class="graph" transform="scale(1 1) rotate(0) translate(4 544)">
<title>G</title>
<polygon fill="white" stroke="none" points="-4,4 -4,-544 1677.28,-544 1677.28,4 -4,4"/>
<!-- [root] module.mod1.random_pet.this (expand) -->
<g id="node1" class="node">
<title>[root] module.mod1.random_pet.this (expand)</title>
<polygon fill="none" stroke="black" points="538.66,-180 350.91,-180 350.91,-144 538.66,-144 538.66,-180"/>
<text text-anchor="middle" x="444.79" y="-156.57" font-family="Times New Roman,serif" font-size="14.00">module.mod1.random_pet.this</text>
</g>
<!-- [root] provider[&quot;registry.terraform.io/hashicorp/random&quot;] -->
<g id="node5" class="node">
<title>[root] provider[&quot;registry.terraform.io/hashicorp/random&quot;]</title>
<polygon fill="none" stroke="black" points="821.79,-108 539.28,-90 821.79,-72 1104.3,-90 821.79,-108"/>
<text text-anchor="middle" x="821.79" y="-84.58" font-family="Times New Roman,serif" font-size="14.00">provider[&quot;registry.terraform.io/hashicorp/random&quot;]</text>
</g>
<!-- [root] module.mod1.random_pet.this (expand)&#45;&gt;[root] provider[&quot;registry.terraform.io/hashicorp/random&quot;] -->
<g id="edge7" class="edge">
<title>[root] module.mod1.random_pet.this (expand)&#45;&gt;[root] provider[&quot;registry.terraform.io/hashicorp/random&quot;]</title>
<path fill="none" stroke="black" d="M538.95,-143.52C600.93,-132.01 681.24,-117.1 740.44,-106.1"/>
<polygon fill="black" stroke="black" points="740.93,-109.57 750.12,-104.31 739.65,-102.69 740.93,-109.57"/>
</g>
<!-- [root] module.mod1.var.pet_length (expand) -->
<g id="node11" class="node">
<title>[root] module.mod1.var.pet_length (expand)</title>
<ellipse fill="none" stroke="black" cx="344.79" cy="-90" rx="176.31" ry="18"/>
<text text-anchor="middle" x="344.79" y="-84.58" font-family="Times New Roman,serif" font-size="14.00">[root] module.mod1.var.pet_length (expand)</text>
</g>
<!-- [root] module.mod1.random_pet.this (expand)&#45;&gt;[root] module.mod1.var.pet_length (expand) -->
<g id="edge6" class="edge">
<title>[root] module.mod1.random_pet.this (expand)&#45;&gt;[root] module.mod1.var.pet_length (expand)</title>
<path fill="none" stroke="black" d="M419.81,-143.52C407.43,-134.85 392.29,-124.25 378.86,-114.85"/>
<polygon fill="black" stroke="black" points="380.88,-112 370.68,-109.13 376.87,-117.73 380.88,-112"/>
</g>
<!-- [root] module.mod1.random_pet.this2 (expand) -->
<g id="node2" class="node">
<title>[root] module.mod1.random_pet.this2 (expand)</title>
<polygon fill="none" stroke="red" points="932.04,-252 737.54,-252 737.54,-216 932.04,-216 932.04,-252"/>
<text text-anchor="middle" x="834.79" y="-228.57" font-family="Times New Roman,serif" font-size="14.00">module.mod1.random_pet.this2</text>
</g>
<!-- [root] module.mod1.time_sleep.this (expand) -->
<g id="node3" class="node">
<title>[root] module.mod1.time_sleep.this (expand)</title>
<polygon fill="none" stroke="black" points="1475.54,-180 1296.04,-180 1296.04,-144 1475.54,-144 1475.54,-180"/>
<text text-anchor="middle" x="1385.79" y="-156.57" font-family="Times New Roman,serif" font-size="14.00">module.mod1.time_sleep.this</text>
</g>
<!-- [root] module.mod1.random_pet.this2 (expand)&#45;&gt;[root] module.mod1.time_sleep.this (expand) -->
<g id="edge8" class="edge">
<title>[root] module.mod1.random_pet.this2 (expand)&#45;&gt;[root] module.mod1.time_sleep.this (expand)</title>
<path fill="none" stroke="red" d="M932.44,-217.33C935.59,-216.87 938.71,-216.43 941.79,-216 1059.21,-199.67 1194.55,-183.96 1284.63,-173.95"/>
<polygon fill="red" stroke="red" points="1284.88,-177.44 1294.43,-172.86 1284.11,-170.48 1284.88,-177.44"/>
</g>
<!-- [root] module.mod1.random_pet.this2 (expand)&#45;&gt;[root] provider[&quot;registry.terraform.io/hashicorp/random&quot;] -->
<g id="edge10" class="edge">
<title>[root] module.mod1.random_pet.this2 (expand)&#45;&gt;[root] provider[&quot;registry.terraform.io/hashicorp/random&quot;]</title>
<path fill="none" stroke="red" d="M833.19,-215.59C831,-191.61 827.02,-148.14 824.39,-119.42"/>
<polygon fill="red" stroke="red" points="827.89,-119.26 823.49,-109.62 820.92,-119.9 827.89,-119.26"/>
</g>
<!-- [root] module.mod1.random_pet.this2 (expand)&#45;&gt;[root] module.mod1.var.pet_length (expand) -->
<g id="edge9" class="edge">
<title>[root] module.mod1.random_pet.this2 (expand)&#45;&gt;[root] module.mod1.var.pet_length (expand)</title>
<path fill="none" stroke="red" d="M781.05,-215.54C723.55,-197.04 629.55,-167.34 547.79,-144 505.87,-132.03 458.77,-119.67 420.5,-109.9"/>
<polygon fill="red" stroke="red" points="421.47,-106.53 410.91,-107.46 419.74,-113.32 421.47,-106.53"/>
</g>
<!-- [root] provider[&quot;registry.terraform.io/hashicorp/time&quot;] -->
<g id="node6" class="node">
<title>[root] provider[&quot;registry.terraform.io/hashicorp/time&quot;]</title>
<polygon fill="none" stroke="black" points="1386.79,-108 1122.62,-90 1386.79,-72 1650.95,-90 1386.79,-108"/>
<text text-anchor="middle" x="1386.79" y="-84.58" font-family="Times New Roman,serif" font-size="14.00">provider[&quot;registry.terraform.io/hashicorp/time&quot;]</text>
</g>
<!-- [root] module.mod1.time_sleep.this (expand)&#45;&gt;[root] provider[&quot;registry.terraform.io/hashicorp/time&quot;] -->
<g id="edge12" class="edge">
<title>[root] module.mod1.time_sleep.this (expand)&#45;&gt;[root] provider[&quot;registry.terraform.io/hashicorp/time&quot;]</title>
<path fill="none" stroke="red" d="M1386.03,-143.7C1386.14,-136.41 1386.26,-127.73 1386.38,-119.54"/>
<polygon fill="red" stroke="red" points="1389.88,-119.67 1386.52,-109.62 1382.88,-119.57 1389.88,-119.67"/>
</g>
<!-- [root] module.mod1 (expand) -->
<g id="node12" class="node">
<title>[root] module.mod1 (expand)</title>
<ellipse fill="none" stroke="black" cx="1104.79" cy="-18" rx="121.42" ry="18"/>
<text text-anchor="middle" x="1104.79" y="-12.57" font-family="Times New Roman,serif" font-size="14.00">[root] module.mod1 (expand)</text>
</g>
<!-- [root] module.mod1.time_sleep.this (expand)&#45;&gt;[root] module.mod1 (expand) -->
<g id="edge11" class="edge">
<title>[root] module.mod1.time_sleep.this (expand)&#45;&gt;[root] module.mod1 (expand)</title>
<path fill="none" stroke="red" d="M1475.82,-158.99C1576.15,-153.68 1717.23,-135.19 1659.79,-72 1631.74,-41.15 1390,-27.82 1234.95,-22.4"/>
<polygon fill="red" stroke="red" points="1235.1,-18.9 1224.99,-22.06 1234.86,-25.9 1235.1,-18.9"/>
</g>
<!-- [root] module.mod2.random_pet.this (expand) -->
<g id="node4" class="node">
<title>[root] module.mod2.random_pet.this (expand)</title>
<polygon fill="none" stroke="black" points="966.66,-396 778.91,-396 778.91,-360 966.66,-360 966.66,-396"/>
<text text-anchor="middle" x="872.79" y="-372.57" font-family="Times New Roman,serif" font-size="14.00">module.mod2.random_pet.this</text>
</g>
<!-- [root] module.mod2.var.pet_length (expand) -->
<g id="node14" class="node">
<title>[root] module.mod2.var.pet_length (expand)</title>
<ellipse fill="none" stroke="black" cx="872.79" cy="-306" rx="176.31" ry="18"/>
<text text-anchor="middle" x="872.79" y="-300.57" font-family="Times New Roman,serif" font-size="14.00">[root] module.mod2.var.pet_length (expand)</text>
</g>
<!-- [root] module.mod2.random_pet.this (expand)&#45;&gt;[root] module.mod2.var.pet_length (expand) -->
<g id="edge16" class="edge">
<title>[root] module.mod2.random_pet.this (expand)&#45;&gt;[root] module.mod2.var.pet_length (expand)</title>
<path fill="none" stroke="black" d="M872.79,-359.7C872.79,-352.41 872.79,-343.73 872.79,-335.54"/>
<polygon fill="black" stroke="black" points="876.29,-335.62 872.79,-325.62 869.29,-335.62 876.29,-335.62"/>
</g>
<!-- [root] var.pet_length -->
<g id="node7" class="node">
<title>[root] var.pet_length</title>
<polygon fill="none" stroke="black" points="386.16,-36 297.41,-36 297.41,0 392.16,0 392.16,-30 386.16,-36"/>
<polyline fill="none" stroke="black" points="386.16,-36 386.16,-30"/>
<polyline fill="none" stroke="black" points="392.16,-30 386.16,-30"/>
<text text-anchor="middle" x="344.79" y="-12.57" font-family="Times New Roman,serif" font-size="14.00">var.pet_length</text>
</g>
<!-- [root] module.mod1 (close) -->
<g id="node8" class="node">
<title>[root] module.mod1 (close)</title>
<ellipse fill="none" stroke="black" cx="557.79" cy="-306" rx="113.94" ry="18"/>
<text text-anchor="middle" x="557.79" y="-300.57" font-family="Times New Roman,serif" font-size="14.00">[root] module.mod1 (close)</text>
</g>
<!-- [root] module.mod1 (close)&#45;&gt;[root] module.mod1.random_pet.this2 (expand) -->
<g id="edge3" class="edge">
<title>[root] module.mod1 (close)&#45;&gt;[root] module.mod1.random_pet.this2 (expand)</title>
<path fill="none" stroke="red" d="M616.53,-290.15C656.72,-280 710.5,-266.41 754.61,-255.26"/>
<polygon fill="red" stroke="red" points="755.3,-258.7 764.14,-252.85 753.59,-251.91 755.3,-258.7"/>
</g>
<!-- [root] module.mod1.output.pet (expand) -->
<g id="node9" class="node">
<title>[root] module.mod1.output.pet (expand)</title>
<ellipse fill="none" stroke="black" cx="557.79" cy="-234" rx="161.84" ry="18"/>
<text text-anchor="middle" x="557.79" y="-228.57" font-family="Times New Roman,serif" font-size="14.00">[root] module.mod1.output.pet (expand)</text>
</g>
<!-- [root] module.mod1 (close)&#45;&gt;[root] module.mod1.output.pet (expand) -->
<g id="edge1" class="edge">
<title>[root] module.mod1 (close)&#45;&gt;[root] module.mod1.output.pet (expand)</title>
<path fill="none" stroke="black" d="M557.79,-287.7C557.79,-280.41 557.79,-271.73 557.79,-263.54"/>
<polygon fill="black" stroke="black" points="561.29,-263.62 557.79,-253.62 554.29,-263.62 561.29,-263.62"/>
</g>
<!-- [root] module.mod1.output.pet_length (expand) -->
<g id="node10" class="node">
<title>[root] module.mod1.output.pet_length (expand)</title>
<ellipse fill="none" stroke="black" cx="188.79" cy="-234" rx="188.79" ry="18"/>
<text text-anchor="middle" x="188.79" y="-228.57" font-family="Times New Roman,serif" font-size="14.00">[root] module.mod1.output.pet_length (expand)</text>
</g>
<!-- [root] module.mod1 (close)&#45;&gt;[root] module.mod1.output.pet_length (expand) -->
<g id="edge2" class="edge">
<title>[root] module.mod1 (close)&#45;&gt;[root] module.mod1.output.pet_length (expand)</title>
<path fill="none" stroke="black" d="M487.08,-291.59C428.94,-280.56 346.07,-264.84 282.42,-252.76"/>
<polygon fill="black" stroke="black" points="283.14,-249.34 272.66,-250.91 281.83,-256.21 283.14,-249.34"/>
</g>
<!-- [root] module.mod1.output.pet (expand)&#45;&gt;[root] module.mod1.random_pet.this (expand) -->
<g id="edge4" class="edge">
<title>[root] module.mod1.output.pet (expand)&#45;&gt;[root] module.mod1.random_pet.this (expand)</title>
<path fill="none" stroke="black" d="M530.14,-215.88C515.75,-206.96 497.94,-195.93 482.32,-186.25"/>
<polygon fill="black" stroke="black" points="484.56,-183.52 474.22,-181.23 480.87,-189.47 484.56,-183.52"/>
</g>
<!-- [root] module.mod1.output.pet_length (expand)&#45;&gt;[root] module.mod1.random_pet.this (expand) -->
<g id="edge5" class="edge">
<title>[root] module.mod1.output.pet_length (expand)&#45;&gt;[root] module.mod1.random_pet.this (expand)</title>
<path fill="none" stroke="black" d="M249.13,-216.5C285.34,-206.6 331.69,-193.92 370.19,-183.4"/>
<polygon fill="black" stroke="black" points="370.64,-186.9 379.36,-180.89 368.8,-180.15 370.64,-186.9"/>
</g>
<!-- [root] module.mod1.var.pet_length (expand)&#45;&gt;[root] var.pet_length -->
<g id="edge14" class="edge">
<title>[root] module.mod1.var.pet_length (expand)&#45;&gt;[root] var.pet_length</title>
<path fill="none" stroke="red" d="M344.79,-71.7C344.79,-64.41 344.79,-55.73 344.79,-47.54"/>
<polygon fill="red" stroke="red" points="348.29,-47.62 344.79,-37.62 341.29,-47.62 348.29,-47.62"/>
</g>
<!-- [root] module.mod1.var.pet_length (expand)&#45;&gt;[root] module.mod1 (expand) -->
<g id="edge13" class="edge">
<title>[root] module.mod1.var.pet_length (expand)&#45;&gt;[root] module.mod1 (expand)</title>
<path fill="none" stroke="red" d="M472.42,-77.24C618.04,-63.83 853.91,-42.11 992.7,-29.32"/>
<polygon fill="red" stroke="red" points="992.62,-32.85 1002.26,-28.44 991.98,-25.88 992.62,-32.85"/>
</g>
<!-- [root] module.mod2 (close) -->
<g id="node13" class="node">
<title>[root] module.mod2 (close)</title>
<ellipse fill="none" stroke="black" cx="699.79" cy="-450" rx="113.94" ry="18"/>
<text text-anchor="middle" x="699.79" y="-444.57" font-family="Times New Roman,serif" font-size="14.00">[root] module.mod2 (close)</text>
</g>
<!-- [root] module.mod2 (close)&#45;&gt;[root] module.mod2.random_pet.this (expand) -->
<g id="edge15" class="edge">
<title>[root] module.mod2 (close)&#45;&gt;[root] module.mod2.random_pet.this (expand)</title>
<path fill="none" stroke="black" d="M739.91,-432.76C763.41,-423.26 793.38,-411.13 818.91,-400.8"/>
<polygon fill="black" stroke="black" points="820.19,-404.06 828.15,-397.06 817.56,-397.57 820.19,-404.06"/>
</g>
<!-- [root] module.mod2.var.pet_length (expand)&#45;&gt;[root] module.mod1.output.pet (expand) -->
<g id="edge17" class="edge">
<title>[root] module.mod2.var.pet_length (expand)&#45;&gt;[root] module.mod1.output.pet (expand)</title>
<path fill="none" stroke="black" d="M801.31,-289.12C753.13,-278.41 689.46,-264.26 639.3,-253.11"/>
<polygon fill="black" stroke="black" points="640.17,-249.72 629.65,-250.97 638.65,-256.55 640.17,-249.72"/>
</g>
<!-- [root] module.mod2 (expand) -->
<g id="node15" class="node">
<title>[root] module.mod2 (expand)</title>
<ellipse fill="none" stroke="black" cx="1071.79" cy="-234" rx="121.42" ry="18"/>
<text text-anchor="middle" x="1071.79" y="-228.57" font-family="Times New Roman,serif" font-size="14.00">[root] module.mod2 (expand)</text>
</g>
<!-- [root] module.mod2.var.pet_length (expand)&#45;&gt;[root] module.mod2 (expand) -->
<g id="edge18" class="edge">
<title>[root] module.mod2.var.pet_length (expand)&#45;&gt;[root] module.mod2 (expand)</title>
<path fill="none" stroke="black" d="M920.45,-288.23C949.02,-278.18 985.51,-265.35 1015.49,-254.8"/>
<polygon fill="black" stroke="black" points="1016.52,-258.15 1024.79,-251.53 1014.2,-251.55 1016.52,-258.15"/>
</g>
<!-- [root] provider[&quot;registry.terraform.io/hashicorp/random&quot;] (close) -->
<g id="node16" class="node">
<title>[root] provider[&quot;registry.terraform.io/hashicorp/random&quot;] (close)</title>
<ellipse fill="none" stroke="black" cx="1083.79" cy="-450" rx="251.66" ry="18"/>
<text text-anchor="middle" x="1083.79" y="-444.57" font-family="Times New Roman,serif" font-size="14.00">[root] provider[&quot;registry.terraform.io/hashicorp/random&quot;] (close)</text>
</g>
<!-- [root] provider[&quot;registry.terraform.io/hashicorp/random&quot;] (close)&#45;&gt;[root] module.mod1.random_pet.this2 (expand) -->
<g id="edge19" class="edge">
<title>[root] provider[&quot;registry.terraform.io/hashicorp/random&quot;] (close)&#45;&gt;[root] module.mod1.random_pet.this2 (expand)</title>
<path fill="none" stroke="red" d="M1086.63,-431.57C1090.89,-398.84 1094.89,-327.92 1057.79,-288 1049.17,-278.73 994.03,-265.58 940.75,-254.7"/>
<polygon fill="red" stroke="red" points="941.75,-251.33 931.26,-252.79 940.37,-258.19 941.75,-251.33"/>
</g>
<!-- [root] provider[&quot;registry.terraform.io/hashicorp/random&quot;] (close)&#45;&gt;[root] module.mod2.random_pet.this (expand) -->
<g id="edge20" class="edge">
<title>[root] provider[&quot;registry.terraform.io/hashicorp/random&quot;] (close)&#45;&gt;[root] module.mod2.random_pet.this (expand)</title>
<path fill="none" stroke="black" d="M1032.44,-431.97C1003.41,-422.34 966.89,-410.22 936.1,-400"/>
<polygon fill="black" stroke="black" points="937.5,-396.78 926.9,-396.95 935.29,-403.42 937.5,-396.78"/>
</g>
<!-- [root] provider[&quot;registry.terraform.io/hashicorp/time&quot;] (close) -->
<g id="node17" class="node">
<title>[root] provider[&quot;registry.terraform.io/hashicorp/time&quot;] (close)</title>
<ellipse fill="none" stroke="black" cx="1382.79" cy="-378" rx="238.69" ry="18"/>
<text text-anchor="middle" x="1382.79" y="-372.57" font-family="Times New Roman,serif" font-size="14.00">[root] provider[&quot;registry.terraform.io/hashicorp/time&quot;] (close)</text>
</g>
<!-- [root] provider[&quot;registry.terraform.io/hashicorp/time&quot;] (close)&#45;&gt;[root] module.mod1.time_sleep.this (expand) -->
<g id="edge21" class="edge">
<title>[root] provider[&quot;registry.terraform.io/hashicorp/time&quot;] (close)&#45;&gt;[root] module.mod1.time_sleep.this (expand)</title>
<path fill="none" stroke="black" d="M1383.03,-359.85C1383.54,-323.14 1384.75,-236.66 1385.39,-191.53"/>
<polygon fill="black" stroke="black" points="1388.88,-191.79 1385.52,-181.75 1381.88,-191.7 1388.88,-191.79"/>
</g>
<!-- [root] root -->
<g id="node18" class="node">
<title>[root] root</title>
<ellipse fill="none" stroke="black" cx="891.79" cy="-522" rx="50.07" ry="18"/>
<text text-anchor="middle" x="891.79" y="-516.58" font-family="Times New Roman,serif" font-size="14.00">[root] root</text>
</g>
<!-- [root] root&#45;&gt;[root] module.mod1 (close) -->
<g id="edge22" class="edge">
<title>[root] root&#45;&gt;[root] module.mod1 (close)</title>
<path fill="none" stroke="red" d="M841.67,-519.64C762.12,-516.38 612.3,-505.3 576.79,-468 543.14,-432.65 546.35,-371.32 551.93,-335.43"/>
<polygon fill="red" stroke="red" points="555.34,-336.25 553.61,-325.8 548.45,-335.05 555.34,-336.25"/>
</g>
<!-- [root] root&#45;&gt;[root] module.mod2 (close) -->
<g id="edge23" class="edge">
<title>[root] root&#45;&gt;[root] module.mod2 (close)</title>
<path fill="none" stroke="black" d="M857.46,-508.49C828.75,-498.02 787.27,-482.9 754.06,-470.79"/>
<polygon fill="black" stroke="black" points="755.62,-467.63 745.02,-467.49 753.22,-474.21 755.62,-467.63"/>
</g>
<!-- [root] root&#45;&gt;[root] provider[&quot;registry.terraform.io/hashicorp/random&quot;] (close) -->
<g id="edge24" class="edge">
<title>[root] root&#45;&gt;[root] provider[&quot;registry.terraform.io/hashicorp/random&quot;] (close)</title>
<path fill="none" stroke="red" d="M926.11,-508.49C953.83,-498.38 993.44,-483.94 1026.02,-472.06"/>
<polygon fill="red" stroke="red" points="1027.16,-475.37 1035.35,-468.66 1024.76,-468.79 1027.16,-475.37"/>
</g>
<!-- [root] root&#45;&gt;[root] provider[&quot;registry.terraform.io/hashicorp/time&quot;] (close) -->
<g id="edge25" class="edge">
<title>[root] root&#45;&gt;[root] provider[&quot;registry.terraform.io/hashicorp/time&quot;] (close)</title>
<path fill="none" stroke="black" d="M942.13,-521.3C1046.54,-520.94 1282.16,-514.81 1344.79,-468 1364.02,-453.62 1373.62,-427.55 1378.35,-407.33"/>
<polygon fill="black" stroke="black" points="1381.75,-408.21 1380.31,-397.71 1374.89,-406.82 1381.75,-408.21"/>
</g>
</g>
</svg>
