<?xml version="1.0" encoding="UTF-8" standalone="no"?>
<!DOCTYPE svg PUBLIC "-//W3C//DTD SVG 1.1//EN"
 "http://www.w3.org/Graphics/SVG/1.1/DTD/svg11.dtd">
<!-- Generated by graphviz version 5.0.0 (20220707.1540)
 -->
<!-- Title: G Pages: 1 -->
<svg width="1647pt" height="548pt"
 viewBox="0.00 0.00 1646.80 548.00" xmlns="http://www.w3.org/2000/svg" xmlns:xlink="http://www.w3.org/1999/xlink">
<g id="graph0" class="graph" transform="scale(1 1) rotate(0) translate(4 544)">
<title>G</title>
<polygon fill="white" stroke="transparent" points="-4,4 -4,-544 1642.8,-544 1642.8,4 -4,4"/>
<!-- [root] module.mod1.random_pet.this (expand) -->
<g id="node1" class="node">
<title>[root] module.mod1.random_pet.this (expand)</title>
<polygon fill="none" stroke="black" points="528.58,-180 340.58,-180 340.58,-144 528.58,-144 528.58,-180"/>
<text text-anchor="middle" x="434.58" y="-158.3" font-family="Times New Roman,serif" font-size="14.00">module.mod1.random_pet.this</text>
</g>
<!-- [root] provider[&quot;registry.terraform.io/hashicorp/random&quot;] -->
<g id="node5" class="node">
<title>[root] provider[&quot;registry.terraform.io/hashicorp/random&quot;]</title>
<polygon fill="none" stroke="black" points="805.58,-108 528.75,-90 805.58,-72 1082.42,-90 805.58,-108"/>
<text text-anchor="middle" x="805.58" y="-86.3" font-family="Times New Roman,serif" font-size="14.00">provider[&quot;registry.terraform.io/hashicorp/random&quot;]</text>
</g>
<!-- [root] module.mod1.random_pet.this (expand)&#45;&gt;[root] provider[&quot;registry.terraform.io/hashicorp/random&quot;] -->
<g id="edge7" class="edge">
<title>[root] module.mod1.random_pet.this (expand)&#45;&gt;[root] provider[&quot;registry.terraform.io/hashicorp/random&quot;]</title>
<path fill="none" stroke="red" d="M524.87,-143.97C587.21,-132.2 669.25,-116.72 728.52,-105.54"/>
<polygon fill="red" stroke="red" points="729.4,-108.94 738.57,-103.64 728.1,-102.06 729.4,-108.94"/>
</g>
<!-- [root] module.mod1.var.pet_length (expand) -->
<g id="node11" class="node">
<title>[root] module.mod1.var.pet_length (expand)</title>
<ellipse fill="none" stroke="black" cx="337.58" cy="-90" rx="172.77" ry="18"/>
<text text-anchor="middle" x="337.58" y="-86.3" font-family="Times New Roman,serif" font-size="14.00">[root] module.mod1.var.pet_length (expand)</text>
</g>
<!-- [root] module.mod1.random_pet.this (expand)&#45;&gt;[root] module.mod1.var.pet_length (expand) -->
<g id="edge6" class="edge">
<title>[root] module.mod1.random_pet.this (expand)&#45;&gt;[root] module.mod1.var.pet_length (expand)</title>
<path fill="none" stroke="red" d="M410.61,-143.7C398.18,-134.73 382.84,-123.66 369.43,-113.98"/>
<polygon fill="red" stroke="red" points="371.11,-110.88 360.95,-107.86 367.01,-116.55 371.11,-110.88"/>
</g>
<!-- [root] module.mod1.random_pet.this2 (expand) -->
<g id="node2" class="node">
<title>[root] module.mod1.random_pet.this2 (expand)</title>
<polygon fill="none" stroke="black" points="917.08,-252 722.08,-252 722.08,-216 917.08,-216 917.08,-252"/>
<text text-anchor="middle" x="819.58" y="-230.3" font-family="Times New Roman,serif" font-size="14.00">module.mod1.random_pet.this2</text>
</g>
<!-- [root] module.mod1.time_sleep.this (expand) -->
<g id="node3" class="node">
<title>[root] module.mod1.time_sleep.this (expand)</title>
<polygon fill="none" stroke="black" points="1447.58,-180 1267.58,-180 1267.58,-144 1447.58,-144 1447.58,-180"/>
<text text-anchor="middle" x="1357.58" y="-158.3" font-family="Times New Roman,serif" font-size="14.00">module.mod1.time_sleep.this</text>
</g>
<!-- [root] module.mod1.random_pet.this2 (expand)&#45;&gt;[root] module.mod1.time_sleep.this (expand) -->
<g id="edge8" class="edge">
<title>[root] module.mod1.random_pet.this2 (expand)&#45;&gt;[root] module.mod1.time_sleep.this (expand)</title>
<path fill="none" stroke="black" d="M917.17,-217.21C920.01,-216.8 922.82,-216.39 925.58,-216 1039.05,-199.95 1169.69,-184.31 1257.33,-174.24"/>
<polygon fill="black" stroke="black" points="1257.73,-177.71 1267.27,-173.1 1256.94,-170.76 1257.73,-177.71"/>
</g>
<!-- [root] module.mod1.random_pet.this2 (expand)&#45;&gt;[root] provider[&quot;registry.terraform.io/hashicorp/random&quot;] -->
<g id="edge10" class="edge">
<title>[root] module.mod1.random_pet.this2 (expand)&#45;&gt;[root] provider[&quot;registry.terraform.io/hashicorp/random&quot;]</title>
<path fill="none" stroke="black" d="M817.89,-215.87C815.51,-191.67 811.13,-147.21 808.28,-118.39"/>
<polygon fill="black" stroke="black" points="811.74,-117.8 807.28,-108.19 804.78,-118.48 811.74,-117.8"/>
</g>
<!-- [root] module.mod1.random_pet.this2 (expand)&#45;&gt;[root] module.mod1.var.pet_length (expand) -->
<g id="edge9" class="edge">
<title>[root] module.mod1.random_pet.this2 (expand)&#45;&gt;[root] module.mod1.var.pet_length (expand)</title>
<path fill="none" stroke="black" d="M768.09,-215.95C711.72,-197.48 618.57,-167.5 537.58,-144 495.62,-131.83 448.39,-119.26 410.36,-109.41"/>
<polygon fill="black" stroke="black" points="410.96,-105.95 400.4,-106.84 409.21,-112.73 410.96,-105.95"/>
</g>
<!-- [root] provider[&quot;registry.terraform.io/hashicorp/time&quot;] -->
<g id="node6" class="node">
<title>[root] provider[&quot;registry.terraform.io/hashicorp/time&quot;]</title>
<polygon fill="none" stroke="black" points="1358.58,-108 1100.52,-90 1358.58,-72 1616.65,-90 1358.58,-108"/>
<text text-anchor="middle" x="1358.58" y="-86.3" font-family="Times New Roman,serif" font-size="14.00">provider[&quot;registry.terraform.io/hashicorp/time&quot;]</text>
</g>
<!-- [root] module.mod1.time_sleep.this (expand)&#45;&gt;[root] provider[&quot;registry.terraform.io/hashicorp/time&quot;] -->
<g id="edge12" class="edge">
<title>[root] module.mod1.time_sleep.this (expand)&#45;&gt;[root] provider[&quot;registry.terraform.io/hashicorp/time&quot;]</title>
<path fill="none" stroke="black" d="M1357.83,-143.7C1357.94,-135.98 1358.07,-126.71 1358.2,-118.11"/>
<polygon fill="black" stroke="black" points="1361.7,-118.15 1358.34,-108.1 1354.7,-118.05 1361.7,-118.15"/>
</g>
<!-- [root] module.mod1 (expand) -->
<g id="node12" class="node">
<title>[root] module.mod1 (expand)</title>
<ellipse fill="none" stroke="black" cx="1082.58" cy="-18" rx="118.88" ry="18"/>
<text text-anchor="middle" x="1082.58" y="-14.3" font-family="Times New Roman,serif" font-size="14.00">[root] module.mod1 (expand)</text>
</g>
<!-- [root] module.mod1.time_sleep.this (expand)&#45;&gt;[root] module.mod1 (expand) -->
<g id="edge11" class="edge">
<title>[root] module.mod1.time_sleep.this (expand)&#45;&gt;[root] module.mod1 (expand)</title>
<path fill="none" stroke="black" d="M1447.82,-158.46C1545.83,-152.61 1681.42,-133.55 1625.58,-72 1598.09,-41.7 1360.36,-28.16 1208.71,-22.55"/>
<polygon fill="black" stroke="black" points="1208.51,-19.04 1198.39,-22.18 1208.26,-26.04 1208.51,-19.04"/>
</g>
<!-- [root] module.mod2.random_pet.this (expand) -->
<g id="node4" class="node">
<title>[root] module.mod2.random_pet.this (expand)</title>
<polygon fill="none" stroke="red" points="948.58,-396 760.58,-396 760.58,-360 948.58,-360 948.58,-396"/>
<text text-anchor="middle" x="854.58" y="-374.3" font-family="Times New Roman,serif" font-size="14.00">module.mod2.random_pet.this</text>
</g>
<!-- [root] module.mod2.var.pet_length (expand) -->
<g id="node14" class="node">
<title>[root] module.mod2.var.pet_length (expand)</title>
<ellipse fill="none" stroke="black" cx="854.58" cy="-306" rx="172.77" ry="18"/>
<text text-anchor="middle" x="854.58" y="-302.3" font-family="Times New Roman,serif" font-size="14.00">[root] module.mod2.var.pet_length (expand)</text>
</g>
<!-- [root] module.mod2.random_pet.this (expand)&#45;&gt;[root] module.mod2.var.pet_length (expand) -->
<g id="edge16" class="edge">
<title>[root] module.mod2.random_pet.this (expand)&#45;&gt;[root] module.mod2.var.pet_length (expand)</title>
<path fill="none" stroke="red" d="M854.58,-359.7C854.58,-351.98 854.58,-342.71 854.58,-334.11"/>
<polygon fill="red" stroke="red" points="858.08,-334.1 854.58,-324.1 851.08,-334.1 858.08,-334.1"/>
</g>
<!-- [root] var.pet_length -->
<g id="node7" class="node">
<title>[root] var.pet_length</title>
<polygon fill="none" stroke="black" points="379.08,-36 290.08,-36 290.08,0 385.08,0 385.08,-30 379.08,-36"/>
<polyline fill="none" stroke="black" points="379.08,-36 379.08,-30 "/>
<polyline fill="none" stroke="black" points="385.08,-30 379.08,-30 "/>
<text text-anchor="middle" x="337.58" y="-14.3" font-family="Times New Roman,serif" font-size="14.00">var.pet_length</text>
</g>
<!-- [root] module.mod1 (close) -->
<g id="node8" class="node">
<title>[root] module.mod1 (close)</title>
<ellipse fill="none" stroke="black" cx="545.58" cy="-306" rx="111.58" ry="18"/>
<text text-anchor="middle" x="545.58" y="-302.3" font-family="Times New Roman,serif" font-size="14.00">[root] module.mod1 (close)</text>
</g>
<!-- [root] module.mod1 (close)&#45;&gt;[root] module.mod1.random_pet.this2 (expand) -->
<g id="edge3" class="edge">
<title>[root] module.mod1 (close)&#45;&gt;[root] module.mod1.random_pet.this2 (expand)</title>
<path fill="none" stroke="black" d="M602.69,-290.41C643.37,-280.02 698.5,-265.93 743,-254.57"/>
<polygon fill="black" stroke="black" points="744.08,-257.9 752.9,-252.04 742.34,-251.12 744.08,-257.9"/>
</g>
<!-- [root] module.mod1.output.pet (expand) -->
<g id="node9" class="node">
<title>[root] module.mod1.output.pet (expand)</title>
<ellipse fill="none" stroke="black" cx="545.58" cy="-234" rx="158.67" ry="18"/>
<text text-anchor="middle" x="545.58" y="-230.3" font-family="Times New Roman,serif" font-size="14.00">[root] module.mod1.output.pet (expand)</text>
</g>
<!-- [root] module.mod1 (close)&#45;&gt;[root] module.mod1.output.pet (expand) -->
<g id="edge1" class="edge">
<title>[root] module.mod1 (close)&#45;&gt;[root] module.mod1.output.pet (expand)</title>
<path fill="none" stroke="black" d="M545.58,-287.7C545.58,-279.98 545.58,-270.71 545.58,-262.11"/>
<polygon fill="black" stroke="black" points="549.08,-262.1 545.58,-252.1 542.08,-262.1 549.08,-262.1"/>
</g>
<!-- [root] module.mod1.output.pet_length (expand) -->
<g id="node10" class="node">
<title>[root] module.mod1.output.pet_length (expand)</title>
<ellipse fill="none" stroke="black" cx="184.58" cy="-234" rx="184.67" ry="18"/>
<text text-anchor="middle" x="184.58" y="-230.3" font-family="Times New Roman,serif" font-size="14.00">[root] module.mod1.output.pet_length (expand)</text>
</g>
<!-- [root] module.mod1 (close)&#45;&gt;[root] module.mod1.output.pet_length (expand) -->
<g id="edge2" class="edge">
<title>[root] module.mod1 (close)&#45;&gt;[root] module.mod1.output.pet_length (expand)</title>
<path fill="none" stroke="black" d="M477.26,-291.75C419.53,-280.56 336.45,-264.45 273.54,-252.25"/>
<polygon fill="black" stroke="black" points="274.11,-248.79 263.63,-250.33 272.78,-255.67 274.11,-248.79"/>
</g>
<!-- [root] module.mod1.output.pet (expand)&#45;&gt;[root] module.mod1.random_pet.this (expand) -->
<g id="edge4" class="edge">
<title>[root] module.mod1.output.pet (expand)&#45;&gt;[root] module.mod1.random_pet.this (expand)</title>
<path fill="none" stroke="red" d="M519,-216.23C504.39,-207.02 486.06,-195.47 470.23,-185.48"/>
<polygon fill="red" stroke="red" points="472.05,-182.49 461.73,-180.12 468.32,-188.41 472.05,-182.49"/>
</g>
<!-- [root] module.mod1.output.pet_length (expand)&#45;&gt;[root] module.mod1.random_pet.this (expand) -->
<g id="edge5" class="edge">
<title>[root] module.mod1.output.pet_length (expand)&#45;&gt;[root] module.mod1.random_pet.this (expand)</title>
<path fill="none" stroke="black" d="M242.25,-216.85C278.39,-206.73 325.23,-193.62 363.64,-182.87"/>
<polygon fill="black" stroke="black" points="365.03,-186.11 373.72,-180.04 363.14,-179.37 365.03,-186.11"/>
</g>
<!-- [root] module.mod1.var.pet_length (expand)&#45;&gt;[root] var.pet_length -->
<g id="edge14" class="edge">
<title>[root] module.mod1.var.pet_length (expand)&#45;&gt;[root] var.pet_length</title>
<path fill="none" stroke="red" d="M337.58,-71.7C337.58,-63.98 337.58,-54.71 337.58,-46.11"/>
<polygon fill="red" stroke="red" points="341.08,-46.1 337.58,-36.1 334.08,-46.1 341.08,-46.1"/>
</g>
<!-- [root] module.mod1.var.pet_length (expand)&#45;&gt;[root] module.mod1 (expand) -->
<g id="edge13" class="edge">
<title>[root] module.mod1.var.pet_length (expand)&#45;&gt;[root] module.mod1 (expand)</title>
<path fill="none" stroke="red" d="M461.44,-77.36C604.64,-63.91 838.06,-41.98 974.29,-29.17"/>
<polygon fill="red" stroke="red" points="974.71,-32.65 984.34,-28.23 974.05,-25.68 974.71,-32.65"/>
</g>
<!-- [root] module.mod2 (close) -->
<g id="node13" class="node">
<title>[root] module.mod2 (close)</title>
<ellipse fill="none" stroke="black" cx="685.58" cy="-450" rx="111.58" ry="18"/>
<text text-anchor="middle" x="685.58" y="-446.3" font-family="Times New Roman,serif" font-size="14.00">[root] module.mod2 (close)</text>
</g>
<!-- [root] module.mod2 (close)&#45;&gt;[root] module.mod2.random_pet.this (expand) -->
<g id="edge15" class="edge">
<title>[root] module.mod2 (close)&#45;&gt;[root] module.mod2.random_pet.this (expand)</title>
<path fill="none" stroke="black" d="M724.36,-432.94C747.95,-423.17 778.34,-410.58 803.83,-400.02"/>
<polygon fill="black" stroke="black" points="805.44,-403.14 813.34,-396.08 802.76,-396.68 805.44,-403.14"/>
</g>
<!-- [root] module.mod2.var.pet_length (expand)&#45;&gt;[root] module.mod1.output.pet (expand) -->
<g id="edge17" class="edge">
<title>[root] module.mod2.var.pet_length (expand)&#45;&gt;[root] module.mod1.output.pet (expand)</title>
<path fill="none" stroke="red" d="M786.01,-289.46C737.75,-278.53 673.1,-263.89 622.99,-252.54"/>
<polygon fill="red" stroke="red" points="623.7,-249.11 613.17,-250.31 622.15,-255.93 623.7,-249.11"/>
</g>
<!-- [root] module.mod2 (expand) -->
<g id="node15" class="node">
<title>[root] module.mod2 (expand)</title>
<ellipse fill="none" stroke="black" cx="1053.58" cy="-234" rx="118.88" ry="18"/>
<text text-anchor="middle" x="1053.58" y="-230.3" font-family="Times New Roman,serif" font-size="14.00">[root] module.mod2 (expand)</text>
</g>
<!-- [root] module.mod2.var.pet_length (expand)&#45;&gt;[root] module.mod2 (expand) -->
<g id="edge18" class="edge">
<title>[root] module.mod2.var.pet_length (expand)&#45;&gt;[root] module.mod2 (expand)</title>
<path fill="none" stroke="red" d="M901.24,-288.59C930.58,-278.27 968.55,-264.91 999.24,-254.12"/>
<polygon fill="red" stroke="red" points="1000.66,-257.33 1008.93,-250.71 998.33,-250.72 1000.66,-257.33"/>
</g>
<!-- [root] provider[&quot;registry.terraform.io/hashicorp/random&quot;] (close) -->
<g id="node16" class="node">
<title>[root] provider[&quot;registry.terraform.io/hashicorp/random&quot;] (close)</title>
<ellipse fill="none" stroke="black" cx="1061.58" cy="-450" rx="246.16" ry="18"/>
<text text-anchor="middle" x="1061.58" y="-446.3" font-family="Times New Roman,serif" font-size="14.00">[root] provider[&quot;registry.terraform.io/hashicorp/random&quot;] (close)</text>
</g>
<!-- [root] provider[&quot;registry.terraform.io/hashicorp/random&quot;] (close)&#45;&gt;[root] module.mod1.random_pet.this2 (expand) -->
<g id="edge19" class="edge">
<title>[root] provider[&quot;registry.terraform.io/hashicorp/random&quot;] (close)&#45;&gt;[root] module.mod1.random_pet.this2 (expand)</title>
<path fill="none" stroke="black" d="M1064.49,-431.85C1068.96,-399.3 1073.5,-328.22 1036.58,-288 1028.05,-278.7 972.11,-265.16 919.16,-254.09"/>
<polygon fill="black" stroke="black" points="919.83,-250.66 909.33,-252.06 918.41,-257.51 919.83,-250.66"/>
</g>
<!-- [root] provider[&quot;registry.terraform.io/hashicorp/random&quot;] (close)&#45;&gt;[root] module.mod2.random_pet.this (expand) -->
<g id="edge20" class="edge">
<title>[root] provider[&quot;registry.terraform.io/hashicorp/random&quot;] (close)&#45;&gt;[root] module.mod2.random_pet.this (expand)</title>
<path fill="none" stroke="black" d="M1012.26,-432.32C983.02,-422.43 945.74,-409.83 914.78,-399.36"/>
<polygon fill="black" stroke="black" points="915.56,-395.92 904.96,-396.04 913.31,-402.56 915.56,-395.92"/>
</g>
<!-- [root] provider[&quot;registry.terraform.io/hashicorp/time&quot;] (close) -->
<g id="node17" class="node">
<title>[root] provider[&quot;registry.terraform.io/hashicorp/time&quot;] (close)</title>
<ellipse fill="none" stroke="black" cx="1354.58" cy="-378" rx="233.16" ry="18"/>
<text text-anchor="middle" x="1354.58" y="-374.3" font-family="Times New Roman,serif" font-size="14.00">[root] provider[&quot;registry.terraform.io/hashicorp/time&quot;] (close)</text>
</g>
<!-- [root] provider[&quot;registry.terraform.io/hashicorp/time&quot;] (close)&#45;&gt;[root] module.mod1.time_sleep.this (expand) -->
<g id="edge21" class="edge">
<title>[root] provider[&quot;registry.terraform.io/hashicorp/time&quot;] (close)&#45;&gt;[root] module.mod1.time_sleep.this (expand)</title>
<path fill="none" stroke="black" d="M1354.82,-359.85C1355.34,-322.83 1356.57,-235.18 1357.2,-190.39"/>
<polygon fill="black" stroke="black" points="1360.7,-190.28 1357.34,-180.23 1353.7,-190.18 1360.7,-190.28"/>
</g>
<!-- [root] root -->
<g id="node18" class="node">
<title>[root] root</title>
<ellipse fill="none" stroke="black" cx="873.58" cy="-522" rx="49.29" ry="18"/>
<text text-anchor="middle" x="873.58" y="-518.3" font-family="Times New Roman,serif" font-size="14.00">[root] root</text>
</g>
<!-- [root] root&#45;&gt;[root] module.mod1 (close) -->
<g id="edge22" class="edge">
<title>[root] root&#45;&gt;[root] module.mod1 (close)</title>
<path fill="none" stroke="black" d="M824.41,-519.5C746.36,-516.03 599.38,-504.67 564.58,-468 530.61,-432.2 534.27,-369.9 539.94,-334.2"/>
<polygon fill="black" stroke="black" points="543.44,-334.49 541.72,-324.04 536.55,-333.28 543.44,-334.49"/>
</g>
<!-- [root] root&#45;&gt;[root] module.mod2 (close) -->
<g id="edge23" class="edge">
<title>[root] root&#45;&gt;[root] module.mod2 (close)</title>
<path fill="none" stroke="black" d="M840.41,-508.65C811.91,-498.04 770.35,-482.56 737.46,-470.32"/>
<polygon fill="black" stroke="black" points="738.59,-467 728,-466.79 736.15,-473.56 738.59,-467"/>
</g>
<!-- [root] root&#45;&gt;[root] provider[&quot;registry.terraform.io/hashicorp/random&quot;] (close) -->
<g id="edge24" class="edge">
<title>[root] root&#45;&gt;[root] provider[&quot;registry.terraform.io/hashicorp/random&quot;] (close)</title>
<path fill="none" stroke="black" d="M906.76,-508.65C934.37,-498.37 974.24,-483.52 1006.61,-471.47"/>
<polygon fill="black" stroke="black" points="1008.24,-474.59 1016.4,-467.83 1005.8,-468.03 1008.24,-474.59"/>
</g>
<!-- [root] root&#45;&gt;[root] provider[&quot;registry.terraform.io/hashicorp/time&quot;] (close) -->
<g id="edge25" class="edge">
<title>[root] root&#45;&gt;[root] provider[&quot;registry.terraform.io/hashicorp/time&quot;] (close)</title>
<path fill="none" stroke="black" d="M923.21,-521.15C1025.52,-520.49 1255.45,-513.82 1316.58,-468 1336.16,-453.33 1345.76,-426.55 1350.4,-406.19"/>
<polygon fill="black" stroke="black" points="1353.86,-406.71 1352.4,-396.22 1347,-405.34 1353.86,-406.71"/>
</g>
</g>
</svg>
