<?xml version="1.0" encoding="UTF-8" standalone="no"?>
<!DOCTYPE svg PUBLIC "-//W3C//DTD SVG 1.1//EN"
 "http://www.w3.org/Graphics/SVG/1.1/DTD/svg11.dtd">
<!-- Generated by graphviz version 9.0.0 (20230911.1827)
 -->
<!-- Title: G Pages: 1 -->
<svg width="758pt" height="188pt"
 viewBox="0.00 0.00 757.60 188.00" xmlns="http://www.w3.org/2000/svg" xmlns:xlink="http://www.w3.org/1999/xlink">
<g id="graph0" class="graph" transform="scale(1 1) rotate(0) translate(4 184)">
<title>G</title>
<polygon fill="white" stroke="none" points="-4,4 -4,-184 753.6,-184 753.6,4 -4,4"/>
<!-- [root] module.mod2.random_pet.this (expand) -->
<g id="node1" class="node">
<title>[root] module.mod2.random_pet.this (expand)</title>
<polygon fill="none" stroke="red" points="399.81,-36 212.06,-36 212.06,0 399.81,0 399.81,-36"/>
<text text-anchor="middle" x="305.94" y="-12.57" font-family="Times New Roman,serif" font-size="14.00">module.mod2.random_pet.this</text>
</g>
<!-- [root] module.mod2 (close) -->
<g id="node2" class="node">
<title>[root] module.mod2 (close)</title>
<ellipse fill="none" stroke="black" cx="113.94" cy="-90" rx="113.94" ry="18"/>
<text text-anchor="middle" x="113.94" y="-84.58" font-family="Times New Roman,serif" font-size="14.00">[root] module.mod2 (close)</text>
</g>
<!-- [root] module.mod2 (close)&#45;&gt;[root] module.mod2.random_pet.this (expand) -->
<g id="edge1" class="edge">
<title>[root] module.mod2 (close)&#45;&gt;[root] module.mod2.random_pet.this (expand)</title>
<path fill="none" stroke="red" d="M157.99,-72.94C184.49,-63.28 218.56,-50.86 247.32,-40.37"/>
<polygon fill="red" stroke="red" points="248.44,-43.69 256.64,-36.97 246.04,-37.11 248.44,-43.69"/>
</g>
<!-- [root] provider[&quot;registry.terraform.io/hashicorp/random&quot;] (close) -->
<g id="node3" class="node">
<title>[root] provider[&quot;registry.terraform.io/hashicorp/random&quot;] (close)</title>
<ellipse fill="none" stroke="black" cx="497.94" cy="-90" rx="251.66" ry="18"/>
<text text-anchor="middle" x="497.94" y="-84.58" font-family="Times New Roman,serif" font-size="14.00">[root] provider[&quot;registry.terraform.io/hashicorp/random&quot;] (close)</text>
</g>
<!-- [root] provider[&quot;registry.terraform.io/hashicorp/random&quot;] (close)&#45;&gt;[root] module.mod2.random_pet.this (expand) -->
<g id="edge2" class="edge">
<title>[root] provider[&quot;registry.terraform.io/hashicorp/random&quot;] (close)&#45;&gt;[root] module.mod2.random_pet.this (expand)</title>
<path fill="none" stroke="red" d="M450.97,-71.88C424.9,-62.37 392.23,-50.46 364.51,-40.35"/>
<polygon fill="red" stroke="red" points="365.77,-37.09 355.18,-36.95 363.37,-43.67 365.77,-37.09"/>
</g>
<!-- [root] root -->
<g id="node4" class="node">
<title>[root] root</title>
<ellipse fill="none" stroke="black" cx="305.94" cy="-162" rx="50.07" ry="18"/>
<text text-anchor="middle" x="305.94" y="-156.57" font-family="Times New Roman,serif" font-size="14.00">[root] root</text>
</g>
<!-- [root] root&#45;&gt;[root] module.mod2 (close) -->
<g id="edge3" class="edge">
<title>[root] root&#45;&gt;[root] module.mod2 (close)</title>
<path fill="none" stroke="red" d="M271.61,-148.49C242.9,-138.02 201.42,-122.9 168.22,-110.79"/>
<polygon fill="red" stroke="red" points="169.77,-107.63 159.17,-107.49 167.37,-114.21 169.77,-107.63"/>
</g>
<!-- [root] root&#45;&gt;[root] provider[&quot;registry.terraform.io/hashicorp/random&quot;] (close) -->
<g id="edge4" class="edge">
<title>[root] root&#45;&gt;[root] provider[&quot;registry.terraform.io/hashicorp/random&quot;] (close)</title>
<path fill="none" stroke="red" d="M340.26,-148.49C367.98,-138.38 407.59,-123.94 440.17,-112.06"/>
<polygon fill="red" stroke="red" points="441.31,-115.37 449.5,-108.66 438.91,-108.79 441.31,-115.37"/>
</g>
</g>
</svg>
